<!-- Generated by IcoMoon.io -->
<svg version="1.1" xmlns="http://www.w3.org/2000/svg" width="18" height="18" viewBox="0 0 18 18">
<title>cog</title>
<path d="M16.165 7.861l-1.325-0.221c-0.153-0.657-0.413-1.272-0.762-1.826l0.738-1.033c0.281-0.394 0.237-0.934-0.105-1.276l-0.214-0.214c-0.342-0.342-0.882-0.387-1.276-0.105l-1.033 0.738c-0.555-0.349-1.169-0.609-1.826-0.762l-0.221-1.325c-0.080-0.482-0.498-0.836-0.986-0.836h-0.306c-0.489 0-0.906 0.353-0.986 0.836l-0.221 1.325c-0.657 0.153-1.271 0.413-1.826 0.762l-1.033-0.738c-0.394-0.281-0.934-0.237-1.276 0.105l-0.214 0.214c-0.342 0.343-0.387 0.882-0.105 1.276l0.738 1.033c-0.349 0.555-0.609 1.169-0.762 1.826l-1.325 0.221c-0.482 0.081-0.836 0.498-0.836 0.987v0.306c0 0.489 0.353 0.906 0.835 0.986l1.325 0.221c0.153 0.657 0.413 1.272 0.762 1.826l-0.738 1.033c-0.281 0.394-0.237 0.934 0.105 1.276l0.214 0.214c0.342 0.342 0.882 0.387 1.276 0.105l1.033-0.738c0.555 0.349 1.169 0.609 1.826 0.762l0.221 1.325c0.080 0.482 0.498 0.836 0.986 0.836h0.306c0.489 0 0.906-0.353 0.986-0.836l0.221-1.325c0.657-0.153 1.271-0.413 1.826-0.762l1.033 0.738c0.394 0.281 0.934 0.237 1.276-0.105l0.214-0.214c0.342-0.343 0.387-0.882 0.105-1.276l-0.738-1.033c0.349-0.555 0.609-1.169 0.762-1.826l1.325-0.221c0.482-0.080 0.835-0.498 0.835-0.986v-0.306c0-0.489-0.353-0.906-0.835-0.987zM9 12c-1.657 0-3-1.343-3-3s1.343-3 3-3 3 1.343 3 3-1.343 3-3 3z"></path>
</svg>
