<!-- Generated by IcoMoon.io -->
<svg version="1.1" xmlns="http://www.w3.org/2000/svg" width="18" height="18" viewBox="0 0 18 18">
<title>user</title>
<path d="M13.714 7.654l-0.001 0c0.182-0.519 0.286-1.073 0.286-1.654 0-2.761-2.238-5-5-5s-5 2.239-5 5c0 0.581 0.104 1.135 0.286 1.654v-0c-1.948 0.991-3.286 3.010-3.286 5.345v3c0 0.553 0.448 1.001 1.001 1.001h13.997c0.553 0 1.001-0.448 1.001-1.001v-3c0-2.336-1.337-4.354-3.286-5.345zM9 3c1.654 0 3 1.346 3 3s-1.346 3-3 3c-1.654 0-3-1.346-3-3s1.346-3 3-3zM15 15h-12v-2.001c0-1.604 0.952-2.987 2.318-3.624 0.914 0.997 2.223 1.625 3.682 1.625s2.768-0.628 3.682-1.625c1.366 0.636 2.318 2.020 2.318 3.624v2.001z"></path>
</svg>
